PathFileType	4	(X/Y/Z)	D:\MotionData\Pi-Spi Study\20230118_AMCsubject1\Trimmed_right_horiz_add01_rotated.trc
DataRate	CameraRate	NumFrames	NumMarkers	Units	OrigDataRate	OrigDataStartFrame	OrigNumFrames
200.00	200.00	       8	35	mm	200.00	26	       200
Frame#	Time	C7			Sternum			r_AMC1			r_AMC2			r_AMC3			l_AMC1			l_AMC2			l_AMC3			PX			T8			r_humerous			r_elbow_medial			r_elbow_lateral			r_forearm			r_wrist_radius			r_wrist_ulna			r_MCP_1			r_MCP_3			l_humerous			l_elbow_medial			l_elbow_lateral			l_forearm			l_wrist_radius			l_wrist_ulna			l_MCP_1			l_MCP_3			r_ASIS			r_PSIS			l_ASIS			l_PSIS			r_IC			l_IC			TS			AI			AA			
		X1	Y1	Z1	X2	Y2	Z2	X3	Y3	Z3	X4	Y4	Z4	X5	Y5	Z5	X6	Y6	Z6	X7	Y7	Z7	X8	Y8	Z8	X9	Y9	Z9	X10	Y10	Z10	X11	Y11	Z11	X12	Y12	Z12	X13	Y13	Z13	X14	Y14	Z14	X15	Y15	Z15	X16	Y16	Z16	X17	Y17	Z17	X18	Y18	Z18	X19	Y19	Z19	X20	Y20	Z20	X21	Y21	Z21	X22	Y22	Z22	X23	Y23	Z23	X24	Y24	Z24	X25	Y25	Z25	X26	Y26	Z26	X27	Y27	Z27	X28	Y28	Z28	X29	Y29	Z29	X30	Y30	Z30	X31	Y31	Z31	X32	Y32	Z32	X33	Y33	Z33	X34	Y34	Z34	X35	Y35	Z35	

26	0.125	163.9248	1374.1091	-218.9338	301.2745	1315.734	-212.9831	181.1605	1357.957	-59.9246	218.9896	1389.1427	-56.3869	213.2106	1402.9515	-98.2721	185.9637	1319.0549	-381.3987	225.3889	1315.5538	-414.1042	244.9347	1354.7225	-384.2574	367.8624	1126.0673	-205.0603	133.121	1187.1898	-220.6451	370.9446	1361.4933	-148.6081	489.3712	1274.7302	-187.7283	507.4145	1328.5129	-160.8253	637.9476	1350.339	-270.3192	686.2629	1322.4764	-320.9343	677.15	1372.5408	-329.4629	747.5158	1336.4012	-381.1051	743.3746	1384.4812	-381.3445	318.8006	1127.2955	-402.9981	249.8613	993.1066	-389.5493	271.151	991.8626	-440.3974	334.774	847.4099	-459.2316	382.2418	779.2699	-437.8003	340.4323	770.599	-454.1621	400.0938	702.2181	-447.6547	352.7536	696.1756	-459.6031	337.9519	909.6594	-69.4898	157.2959	927.9731	-165.7154	359.5637	891.8635	-326.6262	166.2409	920.8068	-267.9851	252.7789	970.3197	-46.3145	272.8962	939.1775	-372.0728	92.2611	1297.6119	-103.7032	121.3085	1209.1064	-61.7466	169.3852	1363.3053	-0.33538
27	0.13	163.9246	1374.0929	-218.8989	301.2797	1315.7539	-212.9937	181.1696	1357.9439	-59.947	218.9462	1389.1415	-56.3355	213.1987	1402.9645	-98.3056	186.0113	1318.9932	-381.4049	225.3723	1315.5492	-414.1047	244.9455	1354.7125	-384.2537	367.9246	1126.0828	-205.0905	133.1207	1187.173	-220.6289	370.9844	1361.4498	-148.6145	489.3763	1274.7178	-187.7023	507.4209	1328.5636	-160.8286	637.9287	1350.3647	-270.3334	686.4574	1321.3427	-320.9042	677.1442	1372.5829	-329.4465	747.4977	1336.4941	-381.0973	743.3433	1384.5653	-381.3693	318.7945	1127.2783	-402.994	249.8507	993.1007	-389.5275	271.121	991.8575	-440.3879	334.8516	847.3511	-459.2351	382.2726	779.2828	-437.783	340.4481	770.5433	-454.1182	400.1234	702.2357	-447.6298	352.7935	696.1488	-459.554	337.9427	909.6322	-69.4822	157.2989	927.9628	-165.7068	359.5523	891.8664	-326.6356	166.2361	920.8054	-267.9857	252.7715	970.3217	-46.3167	272.8367	939.2129	-372.0795	92.2517	1297.6091	-103.7016	121.3701	1209.3193	-61.8166	169.2393	1363.4241	-0.35889
28	0.135	163.8966	1374.0769	-218.9032	301.2496	1315.7293	-213.0107	181.1691	1357.9373	-59.9364	218.9932	1389.0865	-56.4854	213.2329	1402.9282	-98.2575	186.0176	1319.0116	-381.4193	225.3716	1315.5605	-414.0947	244.9342	1354.7297	-384.2608	367.8967	1126.0855	-205.0623	133.1152	1187.1753	-220.6083	370.9283	1361.5438	-148.599	489.4184	1274.7468	-187.6983	507.3209	1328.5845	-160.8674	637.9299	1350.4794	-270.3116	686.4452	1321.4292	-320.8835	677.1643	1372.6786	-329.4757	747.4691	1336.5955	-381.0947	743.3271	1384.6562	-381.3917	318.7115	1127.3376	-402.9628	250.3039	992.3837	-389.7912	271.1435	991.8484	-440.3717	334.8082	847.3911	-459.187	382.2746	779.2968	-437.7507	340.4381	770.601	-454.1019	400.1645	702.2499	-447.6101	352.8235	696.1621	-459.5303	337.9469	909.6508	-69.4699	157.3178	927.9692	-165.6984	359.5415	891.8702	-326.6166	166.2305	920.8149	-267.9717	252.7543	970.3504	-46.2864	272.9089	939.1307	-372.0367	92.2604	1297.603	-103.726	121.2504	1209.111	-61.6418	169.3849	1363.3295	-0.3274
29	0.14	163.8948	1374.0734	-218.8773	301.2651	1315.7284	-212.973	181.1784	1357.8976	-59.918	218.932	1389.1316	-56.4042	213.2194	1402.9096	-98.2705	185.9988	1319.024	-381.3971	225.3776	1315.5719	-414.0952	244.9302	1354.7411	-384.2412	367.8974	1126.0686	-205.0686	133.1259	1187.1857	-220.6172	370.9554	1361.4579	-148.5656	489.3961	1274.8236	-187.6522	507.3416	1328.6129	-160.8585	637.9341	1350.5012	-270.3347	686.4432	1321.5746	-320.8734	677.0956	1372.7976	-329.4653	747.4879	1336.6462	-381.1333	743.3217	1384.733	-381.3946	318.7331	1127.3099	-402.9833	250.255	993.0002	-389.5573	271.1532	991.8586	-440.3725	334.7348	847.4874	-459.1849	382.2914	779.3156	-437.7264	340.4628	770.4861	-454.0294	400.2004	702.2728	-447.565	352.8702	696.1763	-459.5059	337.9449	909.644	-69.4661	157.3159	927.9699	-165.7005	359.5334	891.853	-326.6342	166.2336	920.8048	-267.9862	252.8511	970.2953	-46.3167	272.9532	939.1005	-372.0487	92.2644	1297.5996	-103.689	121.3037	1209.1218	-61.6835	169.3745	1363.3312	-0.32785
30	0.145	163.8939	1374.0776	-218.8688	301.1918	1315.7317	-212.9908	181.1954	1357.8942	-59.9081	218.9626	1389.1167	-56.5008	213.2248	1402.9039	-98.2371	186.0808	1318.9731	-381.4222	225.402	1315.5885	-414.0982	244.9393	1354.7384	-384.2477	367.8928	1126.0698	-205.0779	133.136	1187.1782	-220.6107	370.959	1361.4762	-148.618	489.3606	1274.9337	-187.6472	507.3542	1328.6771	-160.8638	637.9249	1350.6066	-270.3154	686.497	1321.579	-320.8581	677.1177	1372.839	-329.4628	747.4556	1336.7422	-381.1057	743.3015	1384.8147	-381.3858	318.7914	1127.2126	-402.9734	249.8314	993.1138	-389.4908	271.1366	991.8522	-440.3594	334.796	847.414	-459.1566	382.2994	779.3076	-437.689	340.4839	770.5665	-454.0543	400.2242	702.2843	-447.5265	352.8623	696.1729	-459.4532	337.9302	909.6478	-69.4406	157.3256	927.9786	-165.6933	359.5797	891.8773	-326.6407	166.2587	920.8109	-267.9685	252.8598	970.3139	-46.3191	272.8604	939.1926	-372.0688	92.2612	1297.598	-103.7001	121.2839	1209.1199	-61.6902	169.2373	1363.4423	-0.33832
31	0.15	163.8763	1374.0709	-218.8834	301.1905	1315.7362	-212.9772	181.1861	1357.8956	-59.883	218.9756	1389.0988	-56.3901	213.209	1402.9391	-98.2776	186.05	1319.0027	-381.384	225.4191	1315.6028	-414.0921	244.9812	1354.7682	-384.2327	367.8497	1126.0497	-205.0628	133.1119	1187.1834	-220.6	370.9626	1361.4795	-148.5705	489.3923	1274.9014	-187.6494	507.379	1328.7281	-160.8727	637.8966	1350.7339	-270.3093	686.4651	1321.6516	-320.8813	677.0982	1372.9325	-329.4652	747.4227	1336.8893	-381.0739	743.3023	1384.9147	-381.4037	318.7398	1127.3099	-402.9674	249.8248	993.1183	-389.5123	271.136	991.8654	-440.3734	334.7795	847.4827	-459.175	382.3264	779.3397	-437.6728	340.4891	770.4772	-453.9544	400.2672	702.3185	-447.4973	352.9265	696.1965	-459.4491	337.9716	909.645	-69.4854	157.3396	927.9818	-165.6862	359.5556	891.858	-326.6345	166.2298	920.781	-267.9567	252.8054	970.3738	-46.2987	272.7955	939.2018	-372.1157	92.2624	1297.6035	-103.6775	121.3711	1209.3207	-61.7175	169.3841	1363.3656	-0.33385
32	0.155	163.8825	1374.0695	-218.8584	301.1612	1315.7002	-212.9905	181.1859	1357.8773	-59.88	218.9745	1389.1161	-56.4924	213.2038	1402.9598	-98.2456	185.9705	1319.1679	-381.4176	225.4488	1315.6372	-414.084	244.9788	1354.7826	-384.2161	367.8528	1126.0793	-205.1045	133.1147	1187.182	-220.6004	370.9417	1361.5575	-148.531	489.4039	1274.9756	-187.623	507.4075	1328.7823	-160.8591	637.9169	1350.7457	-270.2887	686.4733	1321.7152	-320.8533	677.1258	1372.9745	-329.4397	747.454	1336.9259	-381.0612	743.2938	1385.015	-381.3718	318.6862	1127.3915	-403.0123	249.824	993.1283	-389.5073	271.1866	991.9179	-440.357	334.836	847.4591	-459.1231	382.3373	779.3599	-437.6436	340.5005	770.6135	-454.0097	400.3037	702.3309	-447.4328	352.9253	696.2089	-459.4026	337.9799	909.6636	-69.466	157.3491	927.9957	-165.6589	359.5453	891.8526	-326.6583	166.2473	920.7887	-267.9561	252.8554	970.3409	-46.3161	272.8273	939.1937	-372.0497	92.269	1297.5997	-103.6941	121.3046	1209.1074	-61.6927	169.3786	1363.374	-0.33397
33	0.16	163.8648	1374.0802	-218.8566	301.1658	1315.6896	-212.9676	181.1852	1357.864	-59.8782	218.8652	1389.201	-56.1099	213.205	1402.9535	-98.2155	186.0416	1319.103	-381.4338	225.4502	1315.6335	-414.0827	245.0092	1354.807	-384.2186	367.8758	1126.0835	-205.1119	133.1169	1187.1827	-220.5782	370.9547	1361.5892	-148.532	489.4328	1274.984	-187.6255	507.401	1328.8123	-160.8475	637.8999	1350.8695	-270.2729	686.272	1322.9933	-320.8388	677.1099	1373.0728	-329.4335	747.436	1337.0443	-381.0569	743.266	1385.137	-381.3818	318.6914	1127.4186	-403.0106	249.8086	993.1123	-389.5015	271.1684	991.9168	-440.3732	334.7967	847.5075	-459.1148	382.3705	779.3842	-437.6233	340.4899	770.6283	-453.9764	400.2911	702.3563	-447.4157	352.9592	696.2155	-459.3932	338.0243	909.6681	-69.4975	157.358	927.9788	-165.6758	359.5184	891.8466	-326.6834	166.2521	920.779	-267.9389	252.8318	970.4077	-46.3115	272.7577	939.2327	-372.0715	92.2801	1297.5996	-103.6721	121.3253	1209.3351	-61.6408	169.3889	1363.3784	-0.32825
